<?xml version="1.0" encoding="iso-8859-1"?>
<!-- Uploaded to: SVG Repo, www.svgrepo.com, Generator: SVG Repo Mixer Tools -->
<svg height="800px" width="800px" version="1.1" id="Layer_1" xmlns="http://www.w3.org/2000/svg" xmlns:xlink="http://www.w3.org/1999/xlink" 
	 viewBox="0 0 512 512" xml:space="preserve">
<path style="fill:#C6C3CB;" d="M421.836,106.871c14.441,26.29,22.218,56.651,22.218,88.745c0,75.343-44.312,140.337-108.297,170.341
	c-17.167,8.05-28.291,25.117-28.291,44.077v38.476H203.805v-38.846c0-18.872-11.01-35.905-28.07-43.973
	C99.217,329.512,51.031,243.225,73.542,149.175c16.393-68.49,70.889-121.699,139.66-136.868
	c40.021-8.828,78.534-4.896,112.252,8.509C325.454,20.817,386.137,41.884,421.836,106.871z"/>
<circle style="fill:#57545C;" cx="256.021" cy="195.617" r="109.073"/>
<g>
	<circle style="fill:#77757E;" cx="256.021" cy="195.617" r="77.371"/>
	<path style="fill:#77757E;" d="M394.001,504.4H114.424c-12.773,0-23.223-10.45-23.223-23.223v-9.442
		c0-12.773,10.45-23.223,23.223-23.223h279.577c12.773,0,23.223,10.45,23.223,23.223v9.442
		C417.224,493.95,406.773,504.4,394.001,504.4z"/>
</g>
<g style="opacity:0.26;">
	<path style="fill:#3E3B43;" d="M265.64,21.961c0,0,60.685,21.068,96.383,86.055c14.441,26.29,22.218,56.651,22.218,88.745
		c0,75.343-44.312,140.337-108.297,170.341c-17.167,8.05-28.291,25.117-28.291,44.077v38.476h59.813v-38.476
		c0-18.961,11.124-36.027,28.291-44.077c63.985-30.004,108.297-94.997,108.297-170.341c0-32.095-7.777-62.455-22.218-88.745
		c-35.699-64.987-96.382-86.055-96.382-86.055C295.334,9.986,261.387,5.58,225.957,11.067
		C239.741,13.258,253.026,16.946,265.64,21.961z"/>
	<path style="fill:#3E3B43;" d="M394.001,449.656h-59.813c12.773,0,23.223,10.45,23.223,23.223v9.442
		c0,12.773-10.45,23.223-23.223,23.223h59.813c12.773,0,23.223-10.45,23.223-23.223v-9.442
		C417.224,460.106,406.773,449.656,394.001,449.656z"/>
</g>
<path style="opacity:0.31;fill:#FFFFFF;enable-background:new    ;" d="M180.619,215.146c4.883,21.338,18.579,39.303,37.064,49.872
	l110.868-94.16c-7.53-20.247-23.293-36.476-43.221-44.643L180.619,215.146z"/>
<circle style="fill:#FF5023;" cx="383.073" cy="49.956" r="36.587"/>
<path d="M139.338,195.617c0,64.337,52.342,116.68,116.68,116.68s116.68-52.342,116.68-116.68s-52.341-116.68-116.68-116.68
	C191.68,78.937,139.338,131.279,139.338,195.617z M357.495,195.617c0,55.955-45.523,101.477-101.477,101.477
	S154.54,251.571,154.54,195.617S200.063,94.14,256.017,94.14S357.495,139.662,357.495,195.617z"/>
<path d="M383.076,94.14c24.365,0,44.188-19.823,44.188-44.188S407.441,5.765,383.076,5.765s-44.188,19.823-44.188,44.188
	S358.712,94.14,383.076,94.14z M383.076,20.968c15.983,0,28.985,13.002,28.985,28.985s-13.002,28.985-28.985,28.985
	c-15.983,0-28.985-13.002-28.985-28.985S367.094,20.968,383.076,20.968z"/>
<path d="M394.001,440.91h-78.934v-30.875c0-15.781,9.388-30.383,23.918-37.195c33.19-15.563,61.301-40.086,81.293-70.915
	c20.527-31.655,31.378-68.416,31.378-106.308c0-32.204-7.996-64.135-23.121-92.338c-1.983-3.699-6.592-5.091-10.291-3.105
	c-3.699,1.984-5.09,6.592-3.105,10.291c13.946,26.001,21.316,55.447,21.316,85.154c0,69.694-40.793,133.855-103.924,163.458
	c-19.842,9.305-32.664,29.309-32.664,50.959v30.875h-88.459v-31.244c0-21.573-12.727-41.531-32.422-50.844
	c-78.18-36.967-118.499-122.449-98.051-207.877C96.543,85.734,149.103,34.229,214.839,19.73c36.736-8.103,74.014-5.285,107.807,8.15
	c3.899,1.55,8.321-0.353,9.872-4.256c1.551-3.901-0.355-8.321-4.256-9.872C291.634-0.81,251.281-3.877,211.564,4.884
	c-35.164,7.756-67.375,25.195-93.151,50.43c-25.821,25.279-43.893,57.123-52.262,92.091c-11.181,46.715-6.152,93.435,14.545,135.111
	c19.523,39.311,52.121,71.292,91.79,90.049c14.408,6.814,23.718,21.376,23.718,37.1v31.244h-81.78
	c-16.996,0-30.825,13.828-30.825,30.825v9.442c0,16.996,13.828,30.824,30.825,30.824h279.577c16.997,0,30.825-13.828,30.825-30.824
	v-9.442C424.826,454.737,410.997,440.91,394.001,440.91z M409.623,481.177c0,8.614-7.008,15.621-15.622,15.621H114.424
	c-8.614,0-15.622-7.007-15.622-15.621v-9.442c0-8.614,7.008-15.622,15.622-15.622h89.381h103.661h86.535
	c8.614,0,15.622,7.008,15.622,15.622L409.623,481.177L409.623,481.177z"/>
<path d="M287.528,116.728c-9.752-3.909-20.38-6.083-31.511-6.083c-46.853,0-84.971,38.118-84.971,84.972
	c0,6.337,0.72,12.507,2.041,18.452c0.062,0.422,0.155,0.84,0.289,1.25c8.913,37.38,42.57,65.27,82.641,65.27
	c46.853,0,84.972-38.118,84.972-84.971c0-35.249-21.577-65.546-52.214-78.397C288.374,117.017,287.955,116.856,287.528,116.728z
	 M256.017,125.848c4.719,0,9.328,0.476,13.787,1.374l-83.492,70.909c-0.029-0.836-0.064-1.67-0.064-2.513
	C186.249,157.146,217.547,125.848,256.017,125.848z M256.017,265.385c-8.588,0-16.815-1.569-24.419-4.42l92.863-78.867
	c0.863,4.376,1.326,8.893,1.326,13.519C325.787,234.087,294.488,265.385,256.017,265.385z M319.421,166.554
	c-0.317,0.197-0.626,0.41-0.919,0.66l-98.833,83.936c-0.897,0.762-1.566,1.692-2.015,2.7c-13.494-8.919-23.716-22.392-28.465-38.217
	l97.397-82.717C301.035,139.989,312.684,151.915,319.421,166.554z"/>
<path d="M108.964,195.617c0-4.199-3.403-7.601-7.601-7.601c-4.198,0-7.601,3.402-7.601,7.601
	c0,89.468,72.788,162.256,162.256,162.256c4.198,0,7.601-3.402,7.601-7.601s-3.403-7.601-7.601-7.601
	C174.932,342.67,108.964,276.702,108.964,195.617z"/>
</svg>